<svg width="191" height="46" viewBox="0 0 191 46" fill="none" xmlns="http://www.w3.org/2000/svg">
<g clip-path="url(#clip0_226_1500)">
<path fill-rule="evenodd" clip-rule="evenodd" d="M39.0893 0H19.5092H14.6141H10.6113C4.75085 0 2.57169e-07 4.75085 0 10.6113L39.0893 10.6113V0ZM0.000362358 34.8694L0.000362365 34.7916C0.000121253 34.7621 4.64348e-07 34.7326 4.65645e-07 34.7031H0.000362373L0.000364281 12.9603L10.6531 12.9603L10.6531 21.1514V23.895L10.6531 33.2995L23.0482 20.9043H13.0005V12.9559L22.7541 12.9559H26.0211H31.1097V12.9558L39.0891 12.9558L39.0891 12.9559L39.0891 19.8825L39.0891 20.9043V22.2026V31.4829H31.1097L31.1097 24.1275L26.5175 28.7197L24.2599 30.9772L20.5341 34.7031H39.0893V45.3144L10.6113 45.3144C4.8064 45.3144 0.0901621 40.6532 0.00127784 34.8694H0.000362358Z" fill="url(#paint0_radial_226_1500)"/>
<path fill-rule="evenodd" clip-rule="evenodd" d="M50.5473 34.6521H67.6346V29.3467H55.6804V24.8337H66.2222V19.7696H55.6804V15.3255H67.4279V10.0201H50.5473V22.3189V34.6521ZM187.556 35.1338L182.285 28.7261L177.014 35.1338L175.464 33.8936L173.328 32.1022L175.739 29.1395L179.15 25.0054L176.704 22.0772L173.328 17.9087C173.465 17.8168 173.982 17.3919 174.878 16.634L177.014 14.8771C178.943 17.2197 180.7 19.3671 182.285 21.3193C184.214 18.9767 185.971 16.8293 187.556 14.8771C189.531 16.5307 190.759 17.5412 191.242 17.9087L188.83 20.8714L185.42 25.0054L187.831 27.9682L191.242 32.1022C191.104 32.217 190.587 32.6419 189.691 33.3768L187.556 35.1338ZM161.167 20.4241C160.478 20.4241 159.87 20.5389 159.341 20.7686C158.767 21.0212 158.262 21.3657 157.825 21.8021C157.389 22.2384 157.045 22.7437 156.792 23.3179C156.562 23.8691 156.447 24.4777 156.447 25.1437C156.447 25.8098 156.562 26.4184 156.792 26.9696C157.045 27.5438 157.389 28.049 157.825 28.4854C158.262 28.9218 158.767 29.2663 159.341 29.5189C159.87 29.7486 160.478 29.8634 161.167 29.8634C161.833 29.8634 162.442 29.7486 162.993 29.5189C163.567 29.2663 164.072 28.9218 164.509 28.4854C164.945 28.049 165.29 27.5438 165.542 26.9696C165.772 26.4184 165.887 25.8098 165.887 25.1437C165.887 24.4777 165.772 23.8691 165.542 23.3179C165.29 22.7437 164.945 22.2384 164.509 21.8021C164.072 21.3657 163.567 21.0212 162.993 20.7686C162.442 20.5389 161.833 20.4241 161.167 20.4241ZM162.545 34.7209C162.109 34.7898 161.649 34.8243 161.167 34.8243C160.685 34.8243 160.225 34.7898 159.789 34.7209C159.559 34.675 159.123 34.5831 158.48 34.4453C158.136 34.3764 157.722 34.2271 157.24 33.9975C156.849 33.8367 156.459 33.63 156.069 33.3773C155.357 32.918 154.748 32.4242 154.243 31.896C153.714 31.3448 153.221 30.6902 152.761 29.9323C152.348 29.2204 152.038 28.4625 151.831 27.6586C151.624 26.8548 151.521 26.0165 151.521 25.1437C151.521 24.6844 151.556 24.2251 151.624 23.7657C151.67 23.5361 151.762 23.0997 151.9 22.4566C151.969 22.1121 152.118 21.6987 152.348 21.2164C152.555 20.7571 152.761 20.3666 152.968 20.0451C153.427 19.3331 153.921 18.7245 154.449 18.2192C155.001 17.691 155.655 17.1972 156.413 16.7379C157.125 16.3245 157.883 16.0144 158.687 15.8077C159.491 15.601 160.317 15.4977 161.167 15.4977C161.649 15.4977 162.109 15.5321 162.545 15.601C162.775 15.647 163.211 15.7388 163.854 15.8766C164.199 15.9455 164.612 16.0948 165.094 16.3245C165.554 16.5312 165.944 16.7379 166.266 16.9446C166.978 17.4039 167.586 17.8977 168.092 18.426C168.62 18.9772 169.114 19.6317 169.573 20.3896C170.009 21.0786 170.331 21.8365 170.538 22.6633C170.744 23.4442 170.848 24.271 170.848 25.1437C170.848 26.0165 170.744 26.8548 170.538 27.6586C170.331 28.4854 170.009 29.2433 169.573 29.9323C169.114 30.6902 168.62 31.3448 168.092 31.896C167.586 32.4242 166.978 32.918 166.266 33.3773C165.944 33.5841 165.554 33.7908 165.094 33.9975C164.612 34.2271 164.199 34.3764 163.854 34.4453C163.211 34.5831 162.775 34.675 162.545 34.7209ZM147.18 34.617V23.5929C147.18 22.3987 147.02 21.2848 146.698 20.2513C146.4 19.3326 145.906 18.4943 145.217 17.7364C144.574 17.0244 143.793 16.4847 142.874 16.1172C142.001 15.7498 140.991 15.566 139.843 15.566H139.395H139.154C139.062 15.566 138.993 15.5775 138.947 15.6005C138.35 15.6464 137.867 15.7383 137.5 15.8761C136.995 16.0598 136.57 16.2665 136.225 16.4962C135.95 16.657 135.559 16.944 135.054 17.3575C134.824 17.5642 134.503 17.9201 134.089 18.4254V15.6694H128.887C128.91 18.4943 128.922 22.1805 128.922 26.7279V34.6515H134.089V26.2456C134.089 25.4877 134.181 24.7413 134.365 24.0063C134.549 23.2944 134.813 22.6743 135.157 22.146C135.548 21.5948 136.007 21.1814 136.535 20.9058C137.087 20.6302 137.741 20.4924 138.499 20.4924C139.073 20.4924 139.567 20.5728 139.98 20.7336C140.486 20.8943 140.876 21.1125 141.152 21.3881C141.496 21.7326 141.749 22.146 141.91 22.6283C142.07 23.1106 142.151 23.7422 142.151 24.5231V34.617H147.18ZM119.173 25.1783V15.67H124.237V34.6521H119.173V27.5554V25.1783ZM114.487 34.6177L114.487 34.6177V34.6521L114.487 34.6177ZM114.453 23.5936C114.453 28.1226 114.464 31.7973 114.487 34.6177C113.27 34.5947 111.903 34.5832 110.388 34.5832L110.043 33.3086C109.997 33.1708 109.917 32.9066 109.802 32.5162C109.687 32.1028 109.595 31.7698 109.526 31.5171C109.274 31.8846 108.929 32.2865 108.493 32.7229C108.102 33.0904 107.701 33.4119 107.287 33.6875C106.897 33.9631 106.437 34.1928 105.909 34.3765C105.427 34.5373 104.922 34.6406 104.393 34.6866C104.324 34.7095 104.244 34.721 104.152 34.721H103.945H103.498C102.441 34.721 101.431 34.5373 100.466 34.1698C99.5014 33.7794 98.7205 33.2511 98.1234 32.5851C97.4344 31.8272 96.9406 30.9774 96.642 30.0358C96.3205 29.0023 96.1597 27.8884 96.1597 26.6941V21.1821V17.0481V15.67H101.189V25.7984C101.189 26.5793 101.27 27.2109 101.431 27.6932C101.591 28.1755 101.844 28.5889 102.189 28.9334C102.464 29.209 102.855 29.4272 103.36 29.5879C103.773 29.7487 104.267 29.8291 104.841 29.8291C105.622 29.8291 106.288 29.6913 106.839 29.4157C107.368 29.1401 107.827 28.7267 108.217 28.1755C108.562 27.6702 108.826 27.0501 109.01 26.3152C109.193 25.5802 109.285 24.8338 109.285 24.0759V15.67H114.418C114.441 17.071 114.453 19.7122 114.453 23.5936ZM79.8303 30.2424C80.4274 30.518 81.0934 30.6558 81.8284 30.6558C82.5633 30.6558 83.2408 30.518 83.8609 30.2424C84.4581 29.9897 85.0322 29.5878 85.5834 29.0366C86.1117 28.5084 86.4906 27.9227 86.7203 27.2797C86.9729 26.5907 87.0993 25.9016 87.0993 25.2126C87.0993 24.5236 86.9729 23.8346 86.7203 23.1456C86.4677 22.4566 86.0887 21.8595 85.5834 21.3542C85.0322 20.803 84.4581 20.4011 83.8609 20.1485C83.1719 19.8958 82.4944 19.7695 81.8284 19.7695C81.1164 19.7695 80.4504 19.8958 79.8303 20.1485C79.2561 20.4011 78.6934 20.803 78.1422 21.3542C77.6369 21.8595 77.258 22.4566 77.0053 23.1456C76.7527 23.8346 76.6264 24.5236 76.6264 25.2126C76.6264 25.9016 76.7527 26.5907 77.0053 27.2797C77.235 27.9227 77.614 28.5084 78.1422 29.0366C78.6934 29.5878 79.2561 29.9897 79.8303 30.2424ZM81.0705 15.4977H81.2427H81.415C81.9891 15.4977 82.5174 15.5781 82.9997 15.7388C83.5968 15.9455 84.1021 16.1408 84.5155 16.3245C85.0667 16.5771 85.526 16.8757 85.8935 17.2202C86.261 17.4728 86.6629 17.8403 87.0993 18.3226V15.6355H92.129V42.1277H87.0993V32.1371C86.6859 32.5965 86.3528 32.9295 86.1002 33.1362C85.6638 33.5266 85.2734 33.8137 84.9289 33.9974C84.4696 34.2731 83.9758 34.5027 83.4475 34.6865C82.8963 34.8702 82.3222 34.9621 81.725 34.9621H81.415C81.369 34.985 81.3001 34.9965 81.2083 34.9965H81.036C80.7604 34.9965 80.37 34.9735 79.8647 34.9276C79.5202 34.8817 79.1183 34.7898 78.6589 34.652C78.4063 34.5831 78.0274 34.4568 77.5221 34.2731L76.4197 33.7219C75.9603 33.4922 75.3517 33.0214 74.5938 32.3094C74.0196 31.7582 73.5144 31.1381 73.078 30.4491C72.5957 29.6912 72.2627 28.9218 72.079 28.1409C71.8493 27.3141 71.7345 26.4184 71.7345 25.4538C71.7345 24.8796 71.7689 24.3399 71.8378 23.8346C71.9067 23.2834 72.0101 22.7896 72.1479 22.3533C72.2397 22.0547 72.4005 21.6069 72.6302 21.0097C72.9058 20.4585 73.1239 20.0566 73.2847 19.804C73.7211 19.115 74.2264 18.4949 74.8005 17.9436C75.4206 17.3924 76.0637 16.9446 76.7297 16.6001C77.4647 16.2097 78.1766 15.934 78.8657 15.7733C79.6465 15.5895 80.3815 15.4977 81.0705 15.4977Z" fill="white"/>
</g>
<defs>
<radialGradient id="paint0_radial_226_1500" cx="0" cy="0" r="1" gradientUnits="userSpaceOnUse" gradientTransform="translate(26.5846 22.6572) rotate(-53.7284) scale(28.1029 54.0183)">
<stop stop-color="#87F1FF"/>
<stop offset="0.220781" stop-color="#69EDF5"/>
<stop offset="0.445781" stop-color="#00B2FF"/>
<stop offset="1" stop-color="#1235ED"/>
</radialGradient>
<clipPath id="clip0_226_1500">
<rect width="191" height="45.3144" fill="white"/>
</clipPath>
</defs>
</svg>
